<?xml version="1.0" standalone="no"?>
<!DOCTYPE svg PUBLIC "-//W3C//DTD SVG 20010904//EN"
 "http://www.w3.org/TR/2001/REC-SVG-20010904/DTD/svg10.dtd">
<svg version="1.0" xmlns="http://www.w3.org/2000/svg"
 width="512.000000pt" height="512.000000pt" viewBox="0 0 512.000000 512.000000"
 preserveAspectRatio="xMidYMid meet">
<metadata>
Created by potrace 1.11, written by Peter Selinger 2001-2013
</metadata>
<g transform="translate(0.000000,512.000000) scale(0.100000,-0.100000)"
fill="#000000" stroke="none">
<path d="M2418 4795 c-2 -2 -30 -6 -63 -9 -62 -6 -94 -11 -123 -20 -9 -3 -33
-8 -52 -11 -98 -17 -280 -91 -387 -157 -105 -66 -106 -70 -107 -360 -1 -215
-3 -248 -16 -248 -8 0 -328 -1 -710 -1 l-695 -1 -61 -24 c-71 -29 -135 -87
-173 -159 l-26 -50 0 -625 0 -625 29 -59 c16 -32 44 -73 64 -92 l35 -32 -1
-844 c-1 -544 3 -862 9 -898 19 -100 90 -189 188 -234 l46 -21 2185 0 2185 0
47 22 c66 30 133 96 165 162 l28 56 2 878 2 879 37 36 c20 21 49 62 63 92 l26
55 0 625 0 625 -27 50 c-37 70 -90 123 -156 153 l-57 27 -690 2 c-379 1 -704
2 -720 3 l-31 0 0 245 c0 292 0 291 -104 361 -116 78 -335 158 -490 179 -19 3
-46 8 -60 11 -26 6 -356 14 -362 9z m242 -339 c116 -6 274 -41 375 -84 l62
-27 1 -178 1 -177 -37 0 c-45 -1 -928 -1 -994 0 l-47 0 0 175 1 175 31 16 c86
45 259 89 390 100 39 4 73 8 75 9 2 2 11 1 20 -1 9 -1 64 -5 122 -8z"/>
</g>
</svg>
